<?xml version="1.0" encoding="utf-8"?>
<!-- Generator: Adobe Illustrator 18.0.0, SVG Export Plug-In . SVG Version: 6.00 Build 0)  -->
<!DOCTYPE svg PUBLIC "-//W3C//DTD SVG 1.1//EN" "http://www.w3.org/Graphics/SVG/1.1/DTD/svg11.dtd">
<svg xmlns="http://www.w3.org/2000/svg" xmlns:xlink="http://www.w3.org/1999/xlink" version="1.1" id="Layer_1" x="0px" y="0px" viewBox="75.6 0 1183.4 1200" enable-background="new 75.6 0 1183.4 1200" xml:space="preserve">
<g id="Слой_3" display="none">
	
		<image display="inline" overflow="visible" enable-background="new    " width="3589" height="3264" xlink:href="19996ABFF2BD8984.jpeg" transform="matrix(0.3715 0 0 0.3715 176.4398 -10.7003)">
	</image>
</g>
<g id="Слой_2">
	<g>
		<path fill="#FED530" stroke="" stroke-width="2" stroke-miterlimit="10" d="M1236.8,191.8c0.5-0.3,0.8-0.8,1-1    C1237.3,191.3,1236.8,191.5,1236.8,191.8z"/>
		<path fill="#FED530" stroke="" stroke-width="2" stroke-miterlimit="10" d="M1236.8,191.8    C1236.6,191.8,1236.6,191.8,1236.8,191.8C1236.6,191.8,1236.6,191.8,1236.8,191.8z"/>
		<path fill="#FED530" stroke="" stroke-width="2" stroke-miterlimit="10" d="M1224,1204.8c-31-17.2-40.9-68.6-63.3-72.9    c-100.9-25.7-137.7-67.1-137.7-67.1l0,0c-4.3-8.1-10.8-16.9-21.2-26.5c0,1-9.6-26.7-64.3-45.2c-28-29-82.7-102.2-88-117    c-5.3-14.9,10.1-56,10.1-56l0,0c34.3-70.9,87-162.2,105.2-171c19.2-9.6,76.4-30.5,157.7-144c85.5-119.8,18.2-187.4-4.8-199.8    c3.5-18.7-5.8-64.3-11.6-83.5c-5.8-19.2,30.8-45.2,47.2-48.9c0,0,2,2-1.5,6.8c3.3-1,11.1-9.1,14.4-10.6c-1,2-2.5,6.1-5.8,9.6    c6.3-2.3,10.6-9.6,14.4-11.6c-0.3,3-2.5,5.8-4.3,8.6c6.3-2,16.4-13.9,22.7-13.4c6.3,0.5,17.7,12.1,41.9,4.8    c1.8,1.8,7.3,18.2,3,23.7c5.5-5.8,28.8-34.3-1-72.9c-32.3-41.6-33.5-32.5-33.5-31.8c0-1.8,1-53.2-151.9-71.9    c-89.3-8.6-132.7,123.1-149.8,140.3c-17.4,17.4-109.5,127.9-129.7,139.2c-20.2,11.6-152.9,80.7-195,137.5    c-10.6,8.6-76.9,82.7-80.7,95.1c-8.6,9.6-42.4,66.3-47.2,86.5c-16.4,12.6-85.5,67.4-114.3,175.8c-13.4,14.4-169,150.8-166.2,226.8    c0,1,20.2-13.9,23-10.6c-36.6,54.7-102.9,122.1-108.5,152.9c61.5-18.2,285.3-233.6,341-252.3c-10.6,24.5,38.6,10.1,58.5-33.5    c2.3,22.5,28.8,11.1,68.1-37.6c2.8,17.7,35.8,0.5,52.7-18.4c-4.5,14.4,36.1-3,50.5-17.4c-2.8,9.6-31.3,29.3,5.3,61.5    c15.1,13.4,13.4-17.7,47.9-21.4c-39.6,8.6-60,52-3.5,81.5c6.8,5,13.6-2,19.4-13.1c-1.5,15.1,3.5,28.5,25,29.5    c66.8,3.5,15.1-29.8,31.8-50.7c6.3,2.8,13.6,6.3,21.7,6.1c9.1,33,21.4,88.5,6.6,99.6c-21.4,16.1-65.6,34.3-60,63.3    c2.3,2.3-24.7,39.6,19.4,64.3l2.3-12.9c0,0-15.1-13.9-9.6-34.3c3.8,4.5,1,10.8,15.1,6.3l0,0c0,0,13.9,44.1-33,95.6    c-46.9,51.7-30.3,47.2-30.3,47.2l-22.5,47.2l30-38.6l3.3,20.4l19.7-15.1l-14.1,65.6l34.3-36.6l-3.3,22.5l32.3-45.2l13.9,26.7    l12.9-18.2c0,0-7.6,50.5-1,41.9s23.7-45.2,21.4-62.3c-2.3-17.2,28-40.9,25.7-50.5c-0.5-2.3,0.5-7.6,2-14.4    c10.8,8.6,39.1,22.2,64.6-21.2c0.3-0.3,0.3-0.5,0.3-0.8c55.5,9.3,86.3,54.5,98.4,56.5c101.9,9.6,117,75.2,133.2,78.4    c16.1,3.3,42.9,29,42.9,29l5.3-29l-11.9-23.7l17.2,1l-9.6-25.7l35.3,9.6C1241.1,1239.1,1251.5,1227.3,1224,1204.8z M866,1161.9    c5.8-23,18.9-59,18.9-59s1.5,1.8,4,4.8c-2.5,10.6-3.8,27,9.8,34.8C897.8,1144.5,901.6,1169.2,866,1161.9z"/>
	</g>
</g>
</svg>
